<?xml version="1.0" encoding="utf-8"?>
<!DOCTYPE svg PUBLIC "-//W3C//DTD SVG 1.1//EN" "http://www.w3.org/Graphics/SVG/1.1/DTD/svg11.dtd">
<svg version="1.1" id="Livello_1" xmlns="http://www.w3.org/2000/svg" xmlns:xlink="http://www.w3.org/1999/xlink" x="0px" y="0px"
	 width="463.431px" height="522.171px" viewBox="0 0 463.431 522.171" enable-background="new 0 0 463.431 522.171"
	 xml:space="preserve">
<rect x="49.216" y="46.586" fill="%COLOR%" width="375" height="400"/>
<g>
	<path d="M463.404,57.216c-0.001-4.185,0.029-8.397-0.402-12.55c-1.91-18.417-8.968-33.883-27.583-40.404
		c-8.269-2.897-17.542-4.059-26.363-4.078C291.008-0.073,172.96,0.008,54.912,0.028c-3.387,0-6.792,0.063-10.157,0.408
		C25.969,2.36,10.601,10.074,4.294,28.863C1.197,38.089,0.21,48.4,0.188,58.224C-0.079,175.075,0.012,291.927,0.03,408.779
		c0.001,4.185-0.039,8.396,0.374,12.551c1.801,18.1,9.003,33.04,27.257,39.165c8.49,2.848,17.954,3.811,26.986,3.861
		c44.524,0.246,89.051,0.216,133.577,0.187c0.547,0,1.094,0,1.64-0.001l0,0h-1.641h1.641l47.28,57.628l46.993-57.647
		c40.953,0.001,81.906,0.002,122.859-0.015c4.584-0.002,9.198,0.074,13.747-0.387c18.117-1.835,33.012-9.079,38.871-27.525
		c2.716-8.55,3.634-17.991,3.652-27.031C463.498,292.116,463.424,174.666,463.404,57.216z M374.437,373.625
		c-8.26,0-15.591,0-23.825,0.001c0,8.094,0.292,15.799-0.062,23.474c-0.689,14.91-13.042,23.731-26.857,19.476
		c-8.123-2.502-13.285-8.771-13.675-17.621c-0.358-8.127-0.076-16.282-0.076-24.894c-51.796,0-102.874,0-155.05,0
		c0,8.518,0.569,16.88-0.128,25.135c-1.162,13.756-13.668,21.6-26.768,17.284c-7.219-2.378-12.053-7.347-12.97-14.933
		c-0.833-6.891-0.632-13.909-0.85-20.873c-0.067-2.14-0.01-4.285-0.01-7.112c-8.124,0-15.59,0-23.644,0c0-3.048,0-5.395,0-7.742
		c0-44.266-0.482-88.539,0.252-132.793c0.269-16.251,3.271-32.471,5.285-48.673c2.483-19.966,5.404-39.879,7.818-59.853
		c1.931-15.972,10.778-26.366,24.786-33.38c19.715-9.872,41.062-13.557,62.411-17.559c44.909-8.417,88.43-1.729,131.342,11.642
		c5.843,1.821,11.402,4.73,16.854,7.589c13.186,6.916,20.175,18.06,22.024,32.774c4.223,33.602,8.633,67.181,12.946,100.773
		c0.177,1.378,0.189,2.784,0.189,4.177c0.009,45.861,0.008,91.722,0.008,137.583C374.437,369.66,374.437,371.221,374.437,373.625z"
		/>
	<path d="M349.099,221.781c-3.454-24.24-6.857-48.489-10.21-72.744c-1.971-14.259-5.921-17.994-20.09-18.007
		c-57.588-0.052-115.177-0.05-172.765,0c-13.89,0.012-18.157,3.774-20.069,17.441c-3.449,24.644-6.832,49.298-10.194,73.954
		c-1.585,11.624,2.142,15.902,13.873,15.912c34.274,0.028,68.548,0.01,102.822,0.01c34.075,0,68.15,0.012,102.224-0.007
		C346.971,238.333,350.813,233.805,349.099,221.781z"/>
	<path d="M170.567,112.496c1.678,1.385,4.917,1.158,7.462,1.17c18.116,0.084,36.234,0.045,54.351,0.045s36.234,0.019,54.352-0.025
		c2.17-0.006,4.412-0.076,6.494-0.611c4.237-1.089,6.25-4.161,6.039-8.434c-0.209-4.236-2.338-7.151-6.775-7.788
		c-2.156-0.31-4.353-0.463-6.531-0.465c-35.637-0.028-71.274-0.033-106.911,0.008c-2.571,0.003-5.698-0.431-7.575,0.823
		c-2.504,1.672-5.44,4.717-5.592,7.324C165.729,107.166,168.255,110.586,170.567,112.496z"/>
	<path d="M134.513,288.515c-10.811,0.135-19.703,9.386-19.361,20.143c0.335,10.531,9.446,19.295,19.875,19.119
		c10.761-0.182,19.718-9.542,19.361-20.232C154.034,296.915,145.122,288.383,134.513,288.515z"/>
	<path d="M329.97,288.51c-10.562,0.065-19.379,8.854-19.502,19.441c-0.125,10.686,9.107,19.933,19.789,19.823
		c10.605-0.11,19.299-8.87,19.368-19.513C349.695,297.289,340.892,288.442,329.97,288.51z"/>
</g>
</svg>
