<?xml version="1.0" encoding="iso-8859-1"?>
<!-- Generator: Adobe Illustrator 17.0.0, SVG Export Plug-In . SVG Version: 6.00 Build 0)  -->
<!DOCTYPE svg PUBLIC "-//W3C//DTD SVG 1.1//EN" "http://www.w3.org/Graphics/SVG/1.1/DTD/svg11.dtd">
<svg version="1.1" id="Livello_1" xmlns="http://www.w3.org/2000/svg" xmlns:xlink="http://www.w3.org/1999/xlink" x="0px" y="0px"
	 width="265.12px" height="341.601px" viewBox="0 0 265.12 341.601" style="enable-background:new 0 0 265.12 341.601;"
	 xml:space="preserve">
<g id="XMLID_1_">
	<g>
		<path fill="#000000" d="M132.56,5c70.45,0,127.56,57.11,127.56,127.56c0,72.44-90.74,172.44-127.56,202.58
			C95.73,305,5,205,5,132.56C5,62.11,62.11,5,132.56,5z M217.6,132.56c0-46.96-38.08-85.04-85.04-85.04
			c-46.97,0-85.04,38.08-85.04,85.04c0,46.97,38.07,85.04,85.04,85.04C179.52,217.6,217.6,179.53,217.6,132.56z"/>
		<path fill="%COLOR%" d="M132.56,47.52c46.96,0,85.04,38.08,85.04,85.04c0,46.97-38.08,85.04-85.04,85.04
			c-46.97,0-85.04-38.07-85.04-85.04C47.52,85.6,85.59,47.52,132.56,47.52z"/>
	</g>
	<g>
		<path style="fill:none;stroke:#000000;stroke-width:10;stroke-miterlimit:10;" d="M132.56,47.52c-46.97,0-85.04,38.08-85.04,85.04
			c0,46.97,38.07,85.04,85.04,85.04c46.96,0,85.04-38.07,85.04-85.04C217.6,85.6,179.52,47.52,132.56,47.52z"/>
		<path style="fill:none;stroke:#000000;stroke-width:10;stroke-miterlimit:10;" d="M5,132.56C5,205,95.73,305,132.56,335.14
			C169.38,305,260.12,205,260.12,132.56C260.12,62.11,203.01,5,132.56,5S5,62.11,5,132.56z"/>
	</g>
</g>
</svg>
