<?xml version="1.0" encoding="utf-8"?>
<!DOCTYPE svg PUBLIC "-//W3C//DTD SVG 1.1//EN" "http://www.w3.org/Graphics/SVG/1.1/DTD/svg11.dtd">
<svg version="1.1" id="Livello_1" xmlns="http://www.w3.org/2000/svg" xmlns:xlink="http://www.w3.org/1999/xlink" x="0px" y="0px"
	 width="394.911px" height="327px" viewBox="69.14 286.445 394.911 327" enable-background="new 69.14 286.445 394.911 327"
	 xml:space="preserve">
<g>
	<path d="M276.586,451.351c0,2.281,0,4.26,0,6.239c0,46.982,0.009,93.965-0.026,140.947c-0.002,2.479-0.062,5.04-0.661,7.42
		c-1.265,5.03-5.809,7.944-10.95,7.429c-4.915-0.493-8.596-4.064-9.165-9.029c-0.189-1.648-0.138-3.327-0.138-4.992
		c-0.006-94.132-0.006-188.263-0.004-282.395c0-9.609,3.601-14.488,10.572-14.368c6.758,0.117,10.631,5.052,10.253,14.234
		c-0.195,4.746,1.371,6.902,5.818,8.644c20.34,7.969,40.811,15.238,62.723,17.623c23.268,2.532,45.827-1.191,68.066-7.516
		c10.87-3.091,21.568-6.79,32.336-10.235c2.987-0.955,6.702-2.957,8.502,0.547c1.135,2.21,0.448,6.071-0.697,8.617
		c-5.621,12.49-10.48,25.164-12.476,38.811c-3.176,21.713,1.666,42.037,10.763,61.55c5.693,12.212,6.346,12.688-7.819,17.313
		c-19.958,6.517-40.044,12.388-60.97,14.914c-23.319,2.816-46.204,0.075-68.81-5.572
		C301.66,458.473,289.543,454.904,276.586,451.351z M278.168,333.811c0,36.578,0,71.657,0,106.721
		c46.778,22.466,120.119,22.876,165.275,0.652c-16.541-33.695-18.415-68.064-3.03-103.508
		C385.759,358.897,331.859,360.012,278.168,333.811z"/>
	<path fill="%COLOR%" d="M278.168,333.811c53.691,26.2,107.591,25.085,162.244,3.864c-15.385,35.444-13.511,69.813,3.03,103.508
		c-45.156,22.225-118.497,21.814-165.275-0.652C278.168,405.468,278.168,370.39,278.168,333.811z"/>
</g>
</svg>
