<?xml version="1.0" encoding="utf-8"?>
<!DOCTYPE svg PUBLIC "-//W3C//DTD SVG 1.1//EN" "http://www.w3.org/Graphics/SVG/1.1/DTD/svg11.dtd">
<svg version="1.1" id="Livello_2" xmlns="http://www.w3.org/2000/svg" xmlns:xlink="http://www.w3.org/1999/xlink" x="0px" y="0px"
	 width="1484.324px" height="1788.793px" viewBox="217.394 90.221 1484.324 1788.793"
	 enable-background="new 217.394 90.221 1484.324 1788.793" xml:space="preserve">
<path fill="%COLOR%" stroke="#000000" stroke-width="45" stroke-miterlimit="10" d="M705.714,1757.429l209.524-50v25l43.554,89.286
	L992.125,1731v-23.571L1205,1755v-62l-190-148l20-152l4-236l178,18l448,208l12.689-60L1647,1279l-430-344l4-30l6-10l4-108h-72l-4,60
	v32l-96-80l-18-22V337l-12-78l-28-102l-8.875-26l-33.333-16.157L929,127c0,0-22,36-22,42s-26,112-26,112l-6,152l-4,350L765,883
	l-2-92l-72-2v108l14,28l-440,348l-25.106,60v40L699,1175l180-18l4,248l20,140l-196,146L705.714,1757.429z"/>
</svg>
