<?xml version="1.0" encoding="utf-8"?>
<!DOCTYPE svg PUBLIC "-//W3C//DTD SVG 1.1//EN" "http://www.w3.org/Graphics/SVG/1.1/DTD/svg11.dtd">
<svg version="1.1" id="Livello_1" xmlns="http://www.w3.org/2000/svg" xmlns:xlink="http://www.w3.org/1999/xlink" x="0px" y="0px"
	 width="1083.572px" height="1806.759px" viewBox="534.759 247.667 1083.572 1806.759"
	 enable-background="new 534.759 247.667 1083.572 1806.759" xml:space="preserve">
<title>map pin yellow</title>
<g>
	<title>Layer 1</title>
	<path id="svg_2" fill="%COLOR%" stroke="#000000" stroke-width="37" stroke-miterlimit="10" d="M1077.94,1959.63
		c-38.77-190.3-107.116-348.67-189.903-495.44c-61.407-108.87-132.544-209.36-198.364-314.94
		c-21.972-35.24-40.934-72.48-62.047-109.05c-42.216-73.14-76.444-157.938-74.269-267.935
		c2.125-107.473,33.208-193.684,78.03-264.172c73.719-115.935,197.201-210.989,362.884-235.969
		c135.469-20.424,262.479,14.082,352.539,66.748c73.6,43.038,130.6,100.527,173.92,168.28c45.22,70.716,76.36,154.26,78.97,263.232
		c1.34,55.83-7.8,107.532-20.68,150.418c-13.03,43.409-33.99,79.698-52.64,118.458c-36.41,75.66-82.05,144.98-127.86,214.34
		C1262.08,1460.21,1134.02,1670.91,1077.94,1959.63z"/>
	<circle id="svg_4" cx="1080.55" cy="740.047" r="183.332"/>
</g>
</svg>
